<svg width="133" height="40" viewBox="0 0 133 40" fill="none" xmlns="http://www.w3.org/2000/svg">
<path fill-rule="evenodd" clip-rule="evenodd" d="M84.3325 5.67987C85.0251 7.64051 84.5955 9.90088 83.0387 11.4577C81.8029 12.6934 80.1239 13.219 78.5033 13.0368C77.5934 12.9345 76.6238 13.0896 75.9763 13.7371L72.8375 10.5983C73.485 9.95079 73.6401 8.98121 73.5378 8.07129C73.3556 6.45073 73.8812 4.77168 75.1169 3.53593C76.6737 1.97913 78.9341 1.54944 80.8947 2.24212L76.9479 6.18897L76.7984 7.83311L78.7415 9.77618L80.3856 9.62672L84.3325 5.67987Z" fill="#4A90E2"/>
<path d="M61.9907 20.6446L62.0048 30.0157H63.8227H65.6546V26.7041V23.3925H66.8383H68.0361L69.7835 25.8164C72.151 29.1139 76.4349 35.2297 76.6181 35.582C76.7026 35.737 76.8295 36.3289 76.8999 36.8926C76.9986 37.5267 77.1818 38.1468 77.4072 38.5413C78.1118 39.7391 79.7747 40.3169 81.0711 39.8237C82.1562 39.415 83.1285 38.0763 83.1285 37.0194C83.1285 35.5116 81.8462 34.046 80.2538 33.7501C79.8592 33.6655 79.6197 33.4964 79.3096 33.0596C79.0701 32.7496 77.3932 30.4244 75.5612 27.902L72.2496 23.3221L73.7434 21.8988L75.2371 20.4755V17.4599V14.4442L73.6447 12.8518L72.0664 11.2735H67.0215H61.9907V20.6446ZM71.2632 15.022L71.855 15.5293V17.3049V19.0804L71.3336 19.6159L70.8122 20.1514H68.2334H65.6546V17.333V14.5147H68.163H70.6713L71.2632 15.022ZM80.6625 35.2861C81.6771 35.723 82.0576 37.2026 81.3671 38.034C80.6625 38.8514 79.5069 38.9077 78.7882 38.1468C77.6891 36.9771 78.3655 35.2861 80.0002 35.1029C80.0988 35.1029 80.3947 35.1734 80.6625 35.2861Z" fill="#DE3140"/>
<path d="M0.690918 21.6591V30.0156H1.53643H2.38194V26.4786V22.9274L3.03017 23.026C3.39656 23.0683 4.32662 23.1106 5.11577 23.1106H6.53905L8.37099 26.3658C9.38561 28.1555 10.2734 29.7197 10.3439 29.8324C10.4566 29.9733 10.7243 30.0156 11.3726 29.9874L12.2463 29.9452L10.7948 27.2677C9.99156 25.7881 9.13196 24.252 8.89239 23.8434C8.48373 23.167 8.46964 23.1106 8.72329 23.1106C8.96285 23.1106 10.6962 21.645 11.2176 20.9968C11.3444 20.8418 11.3867 20.0245 11.4007 18.1784V15.5714L10.2734 14.4441L9.13196 13.3167H4.91848H0.690918V21.6591ZM9.03331 15.5996L9.70972 16.2619V18.263V20.264L8.94876 20.9123L8.1878 21.5605H5.28487H2.38194V18.2489V14.9373H5.36942H8.3569L9.03331 15.5996Z" fill="white"/>
<path d="M49.8716 14.8669V15.9238H50.7171H51.5626V14.8669V13.81H50.7171H49.8716V14.8669Z" fill="white"/>
<path d="M99.5035 14.8247L99.5457 15.8534L100.434 15.8957L101.307 15.938V14.867V13.8101H100.391H99.4612L99.5035 14.8247Z" fill="white"/>
<path d="M15.2479 19.2212L14.2192 20.1936V24.1675V28.1555L15.262 29.0856L16.3048 30.0156H18.6864H21.082L22.0825 28.9728C23.0971 27.93 23.0971 27.93 23.0971 27.1409V26.3517H22.2516H21.4061V26.9718C21.4061 27.5355 21.3497 27.6482 20.8142 28.1132L20.2083 28.6346L18.5736 28.5642C16.9672 28.4796 16.939 28.4796 16.4317 28.0005L15.9103 27.5355V26.1122C15.9103 24.703 15.9103 24.6889 16.2767 24.6043C16.4739 24.548 18.0663 24.5198 19.8278 24.5198L23.0267 24.5339L23.0689 22.3637L23.0971 20.1795L22.0261 19.2212L20.9552 18.263L18.6159 18.2489H16.2626L15.2479 19.2212ZM20.8142 20.3345L21.4061 20.9404V22.1664V23.3924H18.6582H15.9103V22.096V20.7995L16.4317 20.264L16.9531 19.7285H18.5877H20.2224L20.8142 20.3345Z" fill="white"/>
<path d="M26.0564 26.5631V34.9478H26.8315H27.6065V31.918C27.6065 30.2552 27.6347 28.8882 27.677 28.8882C27.7192 28.8882 28.0293 29.1419 28.3393 29.4519L28.9311 30.0156H31.0308H33.1305L34.117 29.0573L35.1034 28.0991L35.0893 24.1675L35.0611 20.2217L34.1874 19.2917L33.3137 18.3475L31.1999 18.3334L29.1002 18.3193L28.3534 19.0521L27.6065 19.7849V18.9816V18.1784H26.8315H26.0564V26.5631ZM32.891 20.2922C33.5674 20.9827 33.5815 21.1095 33.4546 24.7734L33.356 27.5072L32.9332 27.9864L32.5105 28.4655H30.7772H29.0439L28.3252 27.8173L27.6065 27.169V24.2379V21.3068L28.4943 20.5177L29.368 19.7426L30.8476 19.7285H32.3414L32.891 20.2922Z" fill="white"/>
<path d="M39.0348 19.2212C38.0483 20.2077 38.0342 20.2359 38.0342 20.9686V21.7014H38.8797H39.7253V21.1659C39.7253 20.7291 39.8239 20.5741 40.2889 20.1795C40.8385 19.7285 40.8385 19.7285 42.4027 19.7285H43.981L44.5306 20.2499L45.0802 20.7713V22.0819V23.3924H42.4309H39.7816L38.8375 24.3507L37.8933 25.3089V26.7181V28.1273L38.8516 29.0715L39.8098 30.0156H41.7686H43.7414L44.4883 29.3674L45.2211 28.7192V29.3674V30.0156H45.9961H46.7712V25.1116V20.1936L45.7284 19.179L44.6715 18.1643L42.3604 18.1784L40.0494 18.2066L39.0348 19.2212ZM45.0802 25.8444V27.0281L44.2206 27.8173L43.3751 28.6064H42.0081H40.6553L40.1198 28.085C39.6125 27.5918 39.5843 27.5073 39.5843 26.704C39.5843 25.8867 39.6266 25.8021 40.1198 25.2526L40.6694 24.6607H42.8677H45.0802V25.8444Z" fill="white"/>
<path d="M49.8716 24.097V30.0156H50.7171H51.5626V24.097V18.1784H50.7171H49.8716V24.097Z" fill="white"/>
<path d="M54.522 24.097V30.0156H55.3675H56.213V25.9572L56.2271 21.9128L57.3826 20.8982C58.5241 19.8836 58.5382 19.8695 59.3555 19.8695H60.1587V19.0944V18.3194H59.285H58.3972L57.3122 19.4044L56.213 20.5036V19.334V18.1784H55.3675H54.522V24.097Z" fill="white"/>
<path d="M79.5352 18.2771C79.0701 18.3194 78.8024 18.5026 78.0273 19.2776L77.0691 20.2077V24.1393V28.0709L78.0978 29.0292L79.1124 30.0015L81.4939 30.0156H83.8614L84.8337 29.156L85.8061 28.2964V27.3241C85.8061 26.2531 85.7779 26.2249 84.6928 26.4363C84.2982 26.5208 84.256 26.5772 84.256 27.0563C84.256 27.4932 84.1573 27.6764 83.6923 28.0991L83.1286 28.6064H81.5926H80.0425L79.4083 28.0709L78.7742 27.5495V26.1122L78.7601 24.6607L82.3113 24.6325L85.8483 24.5902V22.3637V20.1372L84.9324 19.2353L84.0023 18.3475L82.0576 18.2771C80.9725 18.2348 79.8452 18.2348 79.5352 18.2771ZM83.6641 20.2781L84.256 20.8277V22.1101V23.3924H81.508H78.7601V22.096V20.7995L79.2815 20.264L79.8029 19.7285H81.4376L83.0581 19.7426L83.6641 20.2781Z" fill="white"/>
<path d="M87.6801 18.418C87.7224 18.5589 88.1452 19.7426 88.6243 21.0673C89.343 23.0542 90.0476 25.0412 91.6259 29.5506C91.7809 30.0156 91.795 30.0156 92.6687 30.0156C93.2605 30.0156 93.5846 29.9593 93.6269 29.8324C93.8383 29.2265 96.4735 21.7437 96.9949 20.2499C97.3472 19.2635 97.6431 18.3898 97.6431 18.3194C97.6431 18.2348 97.2626 18.1784 96.7976 18.1784H95.9662L95.2475 20.3909C93.4155 26.1263 92.7814 28.0428 92.7109 28.0428C92.6687 28.0428 91.9077 25.8303 91.0199 23.1388L89.3993 18.2489L88.4975 18.2066C87.6942 18.1643 87.6097 18.1925 87.6801 18.418Z" fill="white"/>
<path d="M99.616 24.097V30.0156H100.461H101.307V24.097V18.1784H100.461H99.616V24.097Z" fill="white"/>
<path d="M116.132 19.2071L115.117 20.2218V24.097V27.9723L116.132 28.9869L117.147 30.0156H119.57H121.98L122.981 28.9728C123.995 27.93 123.995 27.93 123.995 27.1409V26.3517H123.15H122.304V26.9436C122.304 27.4791 122.234 27.6059 121.741 28.0005L121.191 28.4655H119.528H117.851L117.33 27.93L116.808 27.3945V26.0276V24.6607L120.374 24.6325L123.925 24.5902L123.967 22.3919L123.995 20.2077L122.953 19.1931L121.91 18.1784H119.528H117.147L116.132 19.2071ZM121.684 20.2499L122.304 20.7713V22.0819V23.3924H119.556H116.808V22.096V20.7995L117.33 20.264L117.851 19.7285H119.458H121.05L121.684 20.2499Z" fill="white"/>
<path d="M126.813 24.097V30.0156H127.659H128.504V25.9572L128.518 21.9128L129.674 20.8982C130.787 19.9117 130.858 19.8836 131.576 19.8695H132.309V19.0944V18.3194H131.506H130.689L129.603 19.4044L128.504 20.5036V19.334V18.1784H127.659H126.813V24.097Z" fill="white"/>
<path d="M104.915 19.3059L103.985 20.2923V21.6452V22.998L104.943 23.8999L105.887 24.7877L107.719 24.8018H109.565L110.227 25.4782C110.847 26.0982 110.89 26.1968 110.89 26.8733C110.89 27.5215 110.847 27.6342 110.326 28.0993L109.762 28.6066H108.24H106.718L106.127 28.0006C105.647 27.5074 105.535 27.296 105.535 26.8733V26.3519H104.76H103.985V27.2396V28.1274L104.957 29.0857L105.943 30.058L107.493 30.1285C108.339 30.1567 109.396 30.1426 109.833 30.0862C110.551 30.0017 110.706 29.9171 111.524 29.1421L112.44 28.2965V26.8592V25.4218L111.482 24.4776L110.523 23.5335H108.691H106.859L106.268 22.9275C105.718 22.3639 105.676 22.2652 105.676 21.5465C105.676 20.8419 105.718 20.7292 106.211 20.2501L106.747 19.7287H108.254H109.762L110.34 20.3205C110.805 20.8137 110.904 20.9828 110.833 21.307L110.763 21.7015H111.594H112.44V20.8842C112.44 20.081 112.44 20.0669 111.552 19.1932L110.664 18.3195H108.254H105.845L104.915 19.3059Z" fill="white"/>
</svg>
