<svg width="50" height="50" viewBox="0 0 50 50" fill="none" xmlns="http://www.w3.org/2000/svg">
<rect width="50" height="50" rx="6" fill="#4A90E2"/>
<path d="M23 18C23 17.4696 23.2107 16.9609 23.5858 16.5858C23.9609 16.2107 24.4696 16 25 16C25.5304 16 26.0391 16.2107 26.4142 16.5858C26.7893 16.9609 27 17.4696 27 18C28.1484 18.543 29.1274 19.3883 29.8321 20.4453C30.5367 21.5023 30.9404 22.7311 31 24V27C31.0753 27.6217 31.2954 28.2171 31.6428 28.7381C31.9902 29.2592 32.4551 29.6914 33 30H17C17.5449 29.6914 18.0098 29.2592 18.3572 28.7381C18.7046 28.2171 18.9247 27.6217 19 27V24C19.0596 22.7311 19.4633 21.5023 20.1679 20.4453C20.8726 19.3883 21.8516 18.543 23 18Z" stroke="white" stroke-width="1.5" stroke-linecap="round" stroke-linejoin="round"/>
<path d="M22 30V31C22 31.7956 22.3161 32.5587 22.8787 33.1213C23.4413 33.6839 24.2044 34 25 34C25.7956 34 26.5587 33.6839 27.1213 33.1213C27.6839 32.5587 28 31.7956 28 31V30" stroke="white" stroke-width="1.5" stroke-linecap="round" stroke-linejoin="round"/>
<path d="M34.0001 19.727C33.3441 18.3003 32.3916 17.0297 31.2061 16" stroke="white" stroke-width="1.5" stroke-linecap="round" stroke-linejoin="round"/>
<path d="M16 19.727C16.6553 18.3004 17.6071 17.0299 18.792 16" stroke="white" stroke-width="1.5" stroke-linecap="round" stroke-linejoin="round"/>
</svg>
