<svg width="50" height="50" viewBox="0 0 50 50" fill="none" xmlns="http://www.w3.org/2000/svg">
<rect width="50" height="50" rx="6" fill="#4A90E2"/>
<path d="M25 25V25.5H25.5H29V26.5H24V20.5H25V25ZM24.5 34.5C19.2531 34.5 15 30.2469 15 25C15 19.7531 19.2531 15.5 24.5 15.5C29.7469 15.5 34 19.7531 34 25C34 30.2469 29.7469 34.5 24.5 34.5ZM24.5 33.5C26.7543 33.5 28.9163 32.6045 30.5104 31.0104C32.1045 29.4163 33 27.2543 33 25C33 22.7457 32.1045 20.5837 30.5104 18.9896C28.9163 17.3955 26.7543 16.5 24.5 16.5C22.2457 16.5 20.0837 17.3955 18.4896 18.9896C16.8955 20.5837 16 22.7457 16 25C16 27.2543 16.8955 29.4163 18.4896 31.0104C20.0837 32.6045 22.2457 33.5 24.5 33.5Z" fill="white" stroke="white"/>
</svg>
