<svg width="165" height="50" viewBox="0 0 165 50" fill="none" xmlns="http://www.w3.org/2000/svg">
<path fill-rule="evenodd" clip-rule="evenodd" d="M104.551 7.09968C105.417 9.55048 104.88 12.376 102.934 14.322C101.39 15.8666 99.2907 16.5236 97.265 16.2959C96.1276 16.168 94.9157 16.3618 94.1063 17.1712L90.1828 13.2477C90.9922 12.4383 91.186 11.2264 91.0581 10.089C90.8304 8.06325 91.4874 5.96444 93.032 4.41976C94.978 2.47376 97.8035 1.93665 100.254 2.8025L95.3208 7.73606L95.1339 9.79124L97.5628 12.2201L99.6179 12.0332L104.551 7.09968Z" fill="#4A90E2"/>
<path d="M76.6248 25.8058L76.6424 37.5197H78.9147H81.2046V33.3802V29.2407H82.6843H84.1815L86.3658 32.2704C89.3251 36.3923 94.68 44.0372 94.909 44.4775C95.0147 44.6713 95.1732 45.4111 95.2613 46.1157C95.3846 46.9084 95.6136 47.6835 95.8954 48.1767C96.7762 49.6739 98.8547 50.3961 100.475 49.7796C101.832 49.2688 103.047 47.5954 103.047 46.2743C103.047 44.3895 101.444 42.5575 99.4536 42.1876C98.9604 42.0819 98.661 41.8705 98.2734 41.3245C97.974 40.937 95.8778 38.0305 93.5879 34.8774L89.4484 29.1526L91.3156 27.3735L93.1827 25.5944V21.8248V18.0552L91.1922 16.0648L89.2194 14.0919H82.9133H76.6248V25.8058ZM88.2153 18.7775L88.9552 19.4116V21.6311V23.8505L88.3034 24.5199L87.6517 25.1893H84.4281H81.2046V21.6663V18.1433H84.3401H87.4755L88.2153 18.7775ZM99.9645 44.1076C101.233 44.6537 101.708 46.5033 100.845 47.5425C99.9645 48.5642 98.52 48.6347 97.6217 47.6835C96.2477 46.2214 97.0932 44.1076 99.1366 43.8786C99.2599 43.8786 99.6298 43.9667 99.9645 44.1076Z" fill="#DE3140"/>
<path d="M0 27.0741V37.5197H1.05689H2.11378V33.0983V28.6594L2.92407 28.7827C3.38205 28.8355 4.54464 28.8884 5.53107 28.8884H7.31017L9.6001 32.9574C10.8684 35.1945 11.9781 37.1498 12.0662 37.2907C12.2071 37.4668 12.5418 37.5197 13.3521 37.4844L14.4442 37.4316L12.6299 34.0848C11.6258 32.2352 10.5513 30.3152 10.2519 29.8044C9.74102 28.9589 9.72341 28.8884 10.0405 28.8884C10.3399 28.8884 12.5066 27.0564 13.1583 26.2462C13.3168 26.0524 13.3697 25.0307 13.3873 22.7232V19.4644L11.9781 18.0553L10.5513 16.6461H5.28446H0V27.0741ZM10.428 19.4997L11.2735 20.3276V22.8289V25.3302L10.3223 26.1405L9.37111 26.9508H5.74245H2.11378V22.8113V18.6718H5.84814H9.58249L10.428 19.4997Z" fill="white"/>
<path d="M61.4758 18.5837V19.9048H62.5327H63.5896V18.5837V17.2626H62.5327H61.4758V18.5837Z" fill="white"/>
<path d="M123.515 18.5309L123.568 19.8167L124.678 19.8696L125.77 19.9224V18.5837V17.2626H124.625H123.462L123.515 18.5309Z" fill="white"/>
<path d="M18.1963 24.0267L16.9104 25.2421V30.2095V35.1945L18.2139 36.3571L19.5174 37.5197H22.4943H25.4888L26.7395 36.2162C28.0078 34.9127 28.0078 34.9127 28.0078 33.9262V32.9398H26.9509H25.894V33.7149C25.894 34.4195 25.8235 34.5604 25.1542 35.1417L24.3967 35.7934L22.3534 35.7053C20.3453 35.5997 20.3101 35.5997 19.6759 35.0008L19.0242 34.4195V32.6404C19.0242 30.8789 19.0242 30.8613 19.4822 30.7556C19.7288 30.6851 21.7193 30.6499 23.9211 30.6499L27.9197 30.6675L27.9725 27.9548L28.0078 25.2245L26.669 24.0267L25.3303 22.8289L22.4062 22.8113H19.4646L18.1963 24.0267ZM25.1542 25.4183L25.894 26.1757V27.7082V29.2407H22.4591H19.0242V27.6201V25.9996L19.6759 25.3302L20.3277 24.6608H22.371H24.4143L25.1542 25.4183Z" fill="white"/>
<path d="M31.7068 33.204V43.6849H32.6756H33.6444V39.8977C33.6444 37.8191 33.6797 36.1105 33.7325 36.1105C33.7853 36.1105 34.1729 36.4276 34.5604 36.8151L35.3002 37.5197H37.9248H40.5495L41.7825 36.3219L43.0155 35.1241L42.9979 30.2095L42.9627 25.2774L41.8706 24.1148L40.7784 22.9346L38.1362 22.917L35.5116 22.8993L34.578 23.8153L33.6444 24.7313V23.7272V22.7232H32.6756H31.7068V33.204ZM40.25 25.3654C41.0955 26.2286 41.1131 26.3871 40.9546 30.967L40.8313 34.3842L40.3028 34.9831L39.7744 35.582H37.6078H35.4411L34.5428 34.7718L33.6444 33.9615V30.2976V26.6337L34.7542 25.6473L35.8463 24.6784L37.6958 24.6608H39.563L40.25 25.3654Z" fill="white"/>
<path d="M47.9301 24.0267C46.6971 25.2597 46.6794 25.295 46.6794 26.2109V27.1269H47.7363H48.7932V26.4575C48.7932 25.9115 48.9165 25.7177 49.4978 25.2245C50.1848 24.6608 50.1848 24.6608 52.1401 24.6608H54.1129L54.7999 25.3126L55.4869 25.9643V27.6025V29.2407H52.1753H48.8637L47.6835 30.4385L46.5033 31.6363V33.3978V35.1593L47.7011 36.3395L48.8989 37.5197H51.3474H53.8135L54.7471 36.7094L55.663 35.8991V36.7094V37.5197H56.6318H57.6007V31.3897V25.2421L56.2972 23.9738L54.976 22.7056L52.0872 22.7232L49.1984 22.7584L47.9301 24.0267ZM55.4869 32.3057V33.7853L54.4124 34.7718L53.3555 35.7582H51.6468H49.9558L49.2864 35.1064C48.6523 34.4899 48.6171 34.3842 48.6171 33.3802C48.6171 32.3585 48.6699 32.2528 49.2864 31.5659L49.9734 30.826H52.7213H55.4869V32.3057Z" fill="white"/>
<path d="M61.4758 30.1214V37.5197H62.5327H63.5896V30.1214V22.7232H62.5327H61.4758V30.1214Z" fill="white"/>
<path d="M67.2888 30.1214V37.5197H68.3457H69.4026V32.4466L69.4202 27.3911L70.8646 26.1229C72.2914 24.8546 72.3091 24.837 73.3307 24.837H74.3348V23.8682V22.8993H73.2426H72.1329L70.7766 24.2557L69.4026 25.6296V24.1676V22.7232H68.3457H67.2888V30.1214Z" fill="white"/>
<path d="M98.5553 22.8465C97.974 22.8993 97.6393 23.1283 96.6705 24.0971L95.4727 25.2597V30.1743V35.0888L96.7585 36.2866L98.0268 37.5021L101.004 37.5197H103.963L105.178 36.4452L106.394 35.3707V34.1552C106.394 32.8165 106.359 32.7813 105.002 33.0455C104.509 33.1512 104.456 33.2216 104.456 33.8206C104.456 34.3666 104.333 34.5956 103.752 35.1241L103.047 35.7582H101.127H99.1894L98.3967 35.0888L97.6041 34.4371V32.6404L97.5864 30.826L102.025 30.7908L106.447 30.738V27.9548V25.1717L105.302 24.0443L104.139 22.9346L101.708 22.8465C100.352 22.7936 98.9428 22.7936 98.5553 22.8465ZM103.716 25.3478L104.456 26.0348V27.6377V29.2407H101.021H97.5864V27.6201V25.9996L98.2382 25.3302L98.8899 24.6608H100.933L102.959 24.6784L103.716 25.3478Z" fill="white"/>
<path d="M108.737 23.0226C108.789 23.1988 109.318 24.6784 109.917 26.3342C110.815 28.8179 111.696 31.3016 113.669 36.9384C113.863 37.5197 113.88 37.5197 114.972 37.5197C115.712 37.5197 116.117 37.4492 116.17 37.2907C116.434 36.5332 119.728 27.1798 120.38 25.3126C120.82 24.0795 121.19 22.9874 121.19 22.8993C121.19 22.7936 120.715 22.7232 120.133 22.7232H119.094L118.196 25.4887C115.906 32.658 115.113 35.0536 115.025 35.0536C114.972 35.0536 114.021 32.2881 112.911 28.9236L110.886 22.8113L109.758 22.7584C108.754 22.7056 108.649 22.7408 108.737 23.0226Z" fill="white"/>
<path d="M123.656 30.1214V37.5197H124.713H125.77V30.1214V22.7232H124.713H123.656V30.1214Z" fill="white"/>
<path d="M144.301 24.0091L143.033 25.2773V30.1214V34.9655L144.301 36.2338L145.569 37.5197H148.599H151.611L152.862 36.2162C154.13 34.9127 154.13 34.9127 154.13 33.9262V32.9398H153.073H152.016V33.6796C152.016 34.349 151.928 34.5075 151.312 35.0008L150.625 35.582H148.546H146.45L145.798 34.9127L145.146 34.2433V32.5347V30.826L149.603 30.7908L154.042 30.738L154.095 27.99L154.13 25.2597L152.827 23.9915L151.523 22.7232H148.546H145.569L144.301 24.0091ZM151.241 25.3126L152.016 25.9643V27.6025V29.2407H148.581H145.146V27.6201V25.9996L145.798 25.3302L146.45 24.6608H148.458H150.449L151.241 25.3126Z" fill="white"/>
<path d="M157.653 30.1214V37.5197H158.71H159.767V32.4466L159.785 27.3911L161.229 26.1229C162.621 24.8898 162.709 24.8546 163.607 24.837H164.523V23.8682V22.8993H163.519H162.497L161.141 24.2557L159.767 25.6296V24.1676V22.7232H158.71H157.653V30.1214Z" fill="white"/>
<path d="M130.28 24.1324L129.117 25.3654V27.0565V28.7475L130.315 29.8748L131.495 30.9846L133.785 31.0022H136.093L136.921 31.8477C137.696 32.6227 137.748 32.7461 137.748 33.5916C137.748 34.4018 137.696 34.5428 137.044 35.1241L136.339 35.7582H134.437H132.534L131.795 35.0008C131.196 34.3842 131.055 34.12 131.055 33.5916V32.9398H130.086H129.117V34.0496V35.1593L130.333 36.3571L131.566 37.5725L133.503 37.6606C134.56 37.6958 135.881 37.6782 136.427 37.6078C137.326 37.5021 137.519 37.3964 138.541 36.4276L139.686 35.3707V33.574V31.7772L138.488 30.597L137.29 29.4168H135.001H132.711L131.971 28.6594C131.284 27.9548 131.231 27.8315 131.231 26.9331C131.231 26.0524 131.284 25.9115 131.9 25.3126L132.57 24.6608H134.454H136.339L137.061 25.4007C137.643 26.0172 137.766 26.2286 137.678 26.6337L137.59 27.1269H138.629H139.686V26.1052C139.686 25.1012 139.686 25.0836 138.576 23.9915L137.467 22.8993H134.454H131.442L130.28 24.1324Z" fill="white"/>
</svg>
