<svg width="92" height="24" viewBox="0 0 92 24" fill="none" xmlns="http://www.w3.org/2000/svg">
<path d="M16.2253 1.16452C15.0969 0.388801 13.6244 0 11.8079 0H4.77521C4.21833 0 3.91067 0.278501 3.85223 0.834834L0.995296 18.7675C0.965604 18.9437 1.00967 19.1047 1.12709 19.2512C1.24384 19.398 1.39069 19.471 1.56655 19.471H4.90701C5.4929 19.471 5.81494 19.1931 5.87405 18.6359L6.6651 13.8014C6.69399 13.5671 6.79703 13.3766 6.9729 13.2299C7.14862 13.0834 7.36842 12.9875 7.63215 12.9437C7.89587 12.9002 8.14456 12.8783 8.3794 12.8783C8.61357 12.8783 8.89181 12.8931 9.21465 12.9222C9.53668 12.9515 9.74197 12.9657 9.82997 12.9657C12.3498 12.9657 14.3277 12.2557 15.7638 10.8342C17.1992 9.41319 17.9177 7.44271 17.9177 4.92236C17.9177 3.19357 17.3531 1.94092 16.2253 1.16398V1.16452ZM12.5992 6.54917C12.4522 7.57491 12.0717 8.24853 11.4564 8.57096C10.8409 8.8938 9.9619 9.05421 8.81926 9.05421L7.36869 9.09828L8.11607 4.39518C8.17438 4.07315 8.36475 3.91193 8.68733 3.91193H9.52271C10.6942 3.91193 11.5445 4.0808 12.072 4.41721C12.5992 4.75442 12.775 5.46539 12.5992 6.54917Z" fill="#003087"/>
<path d="M90.4408 0H87.1885C86.8654 0 86.6751 0.161219 86.6171 0.483518L83.7599 18.7682L83.7158 18.8561C83.7158 19.0033 83.7745 19.1418 83.8919 19.2738C84.0086 19.4053 84.1557 19.4714 84.3314 19.4714H87.2327C87.7886 19.4714 88.0964 19.1936 88.1558 18.6364L91.0127 0.659378V0.615715C91.0125 0.205553 90.8214 0.000403846 90.4408 0.000403846V0Z" fill="#009CDE"/>
<path d="M51.1465 7.0782C51.1465 6.93203 51.0877 6.79258 50.9711 6.66092C50.8535 6.52912 50.7216 6.46289 50.5754 6.46289H47.191C46.868 6.46289 46.6044 6.61013 46.3997 6.90234L41.7406 13.7594L39.8068 7.16633C39.6595 6.69773 39.3375 6.46289 38.8397 6.46289H35.5428C35.396 6.46289 35.264 6.52899 35.1475 6.66092C35.03 6.79258 34.9717 6.93217 34.9717 7.0782C34.9717 7.13732 35.2574 8.0013 35.8287 9.67151C36.4 11.342 37.0154 13.1441 37.6748 15.0782C38.3342 17.012 38.6781 18.038 38.7077 18.1545C36.3047 21.4366 35.1036 23.1949 35.1036 23.429C35.1036 23.8102 35.294 24.0005 35.675 24.0005H39.0594C39.3817 24.0005 39.6453 23.8543 39.8507 23.561L51.0591 7.38559C51.1172 7.32742 51.1465 7.22531 51.1465 7.07807V7.0782Z" fill="#003087"/>
<path d="M82.6622 6.46209H79.3216C78.9111 6.46209 78.6628 6.9456 78.5748 7.91264C77.8121 6.74113 76.421 6.1543 74.3988 6.1543C72.289 6.1543 70.494 6.9456 69.0145 8.52795C67.5345 10.1104 66.7949 11.9714 66.7949 14.1102C66.7949 15.8394 67.3002 17.2165 68.3111 18.2417C69.3219 19.268 70.6771 19.7801 72.3773 19.7801C73.2268 19.7801 74.0912 19.604 74.9702 19.2526C75.8494 18.901 76.5374 18.4324 77.0364 17.8462C77.0364 17.8756 77.0065 18.0071 76.9485 18.2414C76.8894 18.4762 76.8605 18.6525 76.8605 18.7689C76.8605 19.2383 77.0505 19.472 77.432 19.472H80.4651C81.021 19.472 81.3439 19.1942 81.4315 18.6369L83.2338 7.16513C83.2626 6.98927 83.2189 6.82832 83.102 6.68161C82.9843 6.53558 82.8381 6.46209 82.6622 6.46209ZM76.9263 15.121C76.1791 15.8536 75.278 16.2199 74.2232 16.2199C73.3731 16.2199 72.6851 15.9858 72.1573 15.5167C71.6296 15.0488 71.3659 14.404 71.3659 13.5826C71.3659 12.4993 71.7323 11.583 72.465 10.8358C73.1967 10.0885 74.1059 9.71491 75.1901 9.71491C76.0099 9.71491 76.6914 9.95673 77.2339 10.44C77.7756 10.9235 78.0473 11.5904 78.0473 12.4401C78.0472 13.4949 77.6734 14.3889 76.9263 15.121Z" fill="#009CDE"/>
<path d="M32.7299 6.46209H29.3894C28.9786 6.46209 28.73 6.9456 28.642 7.91264C27.8509 6.74113 26.4589 6.1543 24.4663 6.1543C22.3565 6.1543 20.5615 6.9456 19.0819 8.52795C17.6019 10.1104 16.8623 11.9714 16.8623 14.1102C16.8623 15.8394 17.3679 17.2165 18.3788 18.2417C19.3898 19.268 20.7447 19.7801 22.4445 19.7801C23.2646 19.7801 24.1149 19.604 24.9938 19.2526C25.8728 18.901 26.5762 18.4324 27.1036 17.8462C26.9861 18.1976 26.9277 18.5054 26.9277 18.7689C26.9277 19.2383 27.1181 19.472 27.4991 19.472H30.5319C31.0883 19.472 31.411 19.1942 31.499 18.6369L33.301 7.16513C33.3299 6.98927 33.286 6.82832 33.1692 6.68161C33.0519 6.53558 32.9056 6.46209 32.7299 6.46209ZM26.9938 15.1428C26.2465 15.8617 25.3303 16.2199 24.2468 16.2199C23.3965 16.2199 22.7152 15.9858 22.2028 15.5167C21.6897 15.0488 21.4335 14.404 21.4335 13.5826C21.4335 12.4993 21.7996 11.583 22.5325 10.8358C23.2646 10.0885 24.1731 9.71491 25.2577 9.71491C26.0777 9.71491 26.759 9.95673 27.3016 10.4401C27.8433 10.9236 28.1147 11.5905 28.1147 12.4403C28.1147 13.5243 27.7411 14.4257 26.9938 15.1428Z" fill="#003087"/>
<path d="M66.157 1.16452C65.0288 0.388801 63.5566 0 61.7398 0H54.7509C54.1646 0 53.8421 0.278501 53.784 0.834834L50.9269 18.7675C50.8973 18.9438 50.9412 19.1049 51.0587 19.2513C51.175 19.398 51.3223 19.471 51.4982 19.471H55.1023C55.4538 19.471 55.6882 19.2807 55.8056 18.8997L56.5969 13.8014C56.6259 13.5671 56.7285 13.3766 56.9045 13.2299C57.0804 13.0834 57.2999 12.9876 57.5639 12.9437C57.8275 12.9002 58.0761 12.8783 58.3112 12.8783C58.5454 12.8783 58.8236 12.8931 59.146 12.9222C59.4683 12.9515 59.6742 12.9657 59.7614 12.9657C62.2817 12.9657 64.2592 12.2557 65.6953 10.8342C67.1312 9.41319 67.849 7.44271 67.849 4.92236C67.8493 3.19371 67.2849 1.94105 66.157 1.16412V1.16452ZM61.6518 8.3951C61.007 8.83455 60.04 9.05421 58.7509 9.05421L57.3443 9.09828L58.0915 4.39518C58.1496 4.07315 58.3399 3.91193 58.6628 3.91193H59.4537C60.0983 3.91193 60.611 3.94122 60.9925 3.99966C61.3729 4.05877 61.7398 4.24135 62.0914 4.54901C62.4431 4.85679 62.6188 5.30377 62.6188 5.88979C62.6188 7.12041 62.2961 7.95538 61.6518 8.3951Z" fill="#009CDE"/>
</svg>
